<svg width="44" height="44" viewBox="0 0 44 44" fill="none" xmlns="http://www.w3.org/2000/svg">
<path d="M22 0C34.1312 0 44 9.86883 44 22C44 34.1312 34.1312 44 22 44C9.86883 44 0 34.1312 0 22C0 9.86883 9.86883 0 22 0ZM22 40.3333C32.109 40.3333 40.3333 32.109 40.3333 22C40.3333 11.891 32.109 3.66667 22 3.66667C11.891 3.66667 3.66666 11.891 3.66666 22C3.66666 32.109 11.891 40.3333 22 40.3333ZM11 22C11 23.012 11.8213 23.8333 12.8333 23.8333H22V29.9952C22 31.2693 23.562 31.9092 24.475 31.0072L32.5747 23.012C33.1412 22.4528 33.1412 21.5472 32.5747 20.988L24.475 12.9928C23.562 12.0908 22 12.7307 22 14.0048V20.1667H12.8333C11.8213 20.1667 11 20.988 11 22Z" fill="#4527A4"/>
</svg>
