<svg width="29" height="26" viewBox="0 0 29 26" fill="none" xmlns="http://www.w3.org/2000/svg">
<path d="M29 -0.000249863C29 1.53575 29 3.07175 29 4.60775C29 6.20775 29 7.77575 29 9.31175C29 14.2397 28.296 18.1117 26.888 20.9277C25.48 23.7437 23.016 25.2157 19.496 25.3438L17.672 21.5997C19.656 21.4077 21.032 20.4478 21.8 18.7198C22.504 17.0557 22.856 14.3997 22.856 10.7517L17.768 10.7518L17.768 -0.000248881L29 -0.000249863ZM12.104 -0.000248386C12.104 1.53575 12.104 3.07175 12.104 4.60775C12.104 6.20775 12.104 7.77575 12.104 9.31175C12.104 14.2397 11.4 18.1117 9.992 20.9278C8.584 23.7437 6.12 25.2157 2.6 25.3438L0.775999 21.5997C2.76 21.4078 4.136 20.4478 4.904 18.7198C5.608 17.0558 5.96 14.3997 5.96 10.7518L0.871998 10.7518L0.871998 -0.000247404L12.104 -0.000248386Z" fill="#9E9E9E"/>
</svg>
